<?xml version="1.0" standalone="no"?>
<!DOCTYPE svg PUBLIC "-//W3C//DTD SVG 20010904//EN"
 "http://www.w3.org/TR/2001/REC-SVG-20010904/DTD/svg10.dtd">
<svg version="1.0" xmlns="http://www.w3.org/2000/svg"
 width="700.000000pt" height="700.000000pt" viewBox="0 0 700.000000 700.000000"
 preserveAspectRatio="xMidYMid meet">
<g transform="translate(0.000000,700.000000) scale(0.100000,-0.100000)"
fill="#000000" stroke="none">
<path d="M3370 6463 c-420 -29 -751 -102 -1108 -244 -1005 -400 -1752 -1274
-1946 -2276 -40 -207 -50 -315 -50 -538 0 -223 10 -331 50 -538 176 -911 809
-1690 1700 -2091 768 -347 1648 -386 2469 -112 816 273 1487 840 1863 1573
153 299 242 575 294 908 32 204 32 598 0 800 -100 640 -377 1177 -840 1626
-77 75 -182 170 -233 210 -386 299 -878 526 -1344 618 -286 57 -613 81 -855
64z m560 -139 c582 -68 1151 -305 1600 -667 144 -116 368 -348 479 -498 280
-374 448 -782 517 -1254 21 -146 29 -428 15 -575 -35 -383 -126 -696 -303
-1043 -429 -837 -1262 -1442 -2238 -1626 -388 -73 -818 -75 -1200 -5 -845 154
-1588 647 -2015 1338 -480 778 -532 1730 -139 2574 84 181 210 384 354 572 92
119 364 392 492 494 321 256 733 467 1133 582 216 63 505 112 750 128 111 7
419 -4 555 -20z"/>
<path d="M5500 3654 c-431 -19 -709 -40 -1060 -79 -1246 -141 -2453 -426
-3480 -822 -236 -91 -260 -108 -230 -162 17 -32 50 -26 219 40 86 34 179 69
207 79 l51 18 348 -309 c192 -170 352 -309 355 -309 4 0 162 233 352 518 l346
518 143 33 c344 78 816 167 1179 221 202 30 439 60 470 60 21 0 152 -92 530
-371 276 -204 505 -367 510 -363 4 5 108 193 231 418 l224 409 198 -6 197 -5
19 24 c20 26 18 56 -6 76 -11 9 -108 12 -371 13 -196 1 -391 1 -432 -1z"/>
</g>
</svg>
